<mxfile host="www.draw.io" modified="2023-12-21T12:33:47.510Z" agent="Mozilla/5.0 (Windows NT 10.0; Win64; x64) AppleWebKit/537.36 (KHTML, like Gecko) Chrome/120.0.0.0 Safari/537.36" etag="blwzxOpqyl4NvJOO02Yc" version="22.1.11" type="device">
  <diagram name="Page-1" id="EHCwA-EueUszO5mIGciY">
    <mxGraphModel dx="2199" dy="1791" grid="1" gridSize="10" guides="1" tooltips="1" connect="1" arrows="1" fold="1" page="1" pageScale="1" pageWidth="827" pageHeight="1169" math="0" shadow="0">
      <root>
        <mxCell id="0" />
        <mxCell id="1" parent="0" />
        <mxCell id="qLB6TrJn8_BzYu4vn8R6-1" value="Doctor" style="swimlane;whiteSpace=wrap;html=1;fontStyle=1" parent="1" vertex="1">
          <mxGeometry x="-280" y="-140" width="540" height="990" as="geometry" />
        </mxCell>
        <mxCell id="qLB6TrJn8_BzYu4vn8R6-2" value="" style="edgeStyle=orthogonalEdgeStyle;rounded=0;orthogonalLoop=1;jettySize=auto;html=1;" parent="qLB6TrJn8_BzYu4vn8R6-1" source="qLB6TrJn8_BzYu4vn8R6-3" target="qLB6TrJn8_BzYu4vn8R6-21" edge="1">
          <mxGeometry relative="1" as="geometry" />
        </mxCell>
        <mxCell id="qLB6TrJn8_BzYu4vn8R6-3" value="View Reports" style="rounded=1;whiteSpace=wrap;html=1;fontStyle=1" parent="qLB6TrJn8_BzYu4vn8R6-1" vertex="1">
          <mxGeometry x="180" y="30" width="100" height="40" as="geometry" />
        </mxCell>
        <mxCell id="qLB6TrJn8_BzYu4vn8R6-8" value="Select Diagnositic test" style="rounded=1;whiteSpace=wrap;html=1;fontStyle=1" parent="qLB6TrJn8_BzYu4vn8R6-1" vertex="1">
          <mxGeometry x="50" y="320" width="100" height="40" as="geometry" />
        </mxCell>
        <mxCell id="qLB6TrJn8_BzYu4vn8R6-9" value="Select medical procedure" style="rounded=1;whiteSpace=wrap;html=1;fontStyle=1" parent="qLB6TrJn8_BzYu4vn8R6-1" vertex="1">
          <mxGeometry x="340" y="260" width="100" height="40" as="geometry" />
        </mxCell>
        <mxCell id="qLB6TrJn8_BzYu4vn8R6-10" value="Select Lab Work" style="rounded=1;whiteSpace=wrap;html=1;fontStyle=1" parent="qLB6TrJn8_BzYu4vn8R6-1" vertex="1">
          <mxGeometry x="180" y="320" width="100" height="33.75" as="geometry" />
        </mxCell>
        <mxCell id="qLB6TrJn8_BzYu4vn8R6-17" value="Request To Retrieve Report" style="rounded=1;whiteSpace=wrap;html=1;fontStyle=1" parent="qLB6TrJn8_BzYu4vn8R6-1" vertex="1">
          <mxGeometry x="110" y="680" width="110" height="51.25" as="geometry" />
        </mxCell>
        <mxCell id="qLB6TrJn8_BzYu4vn8R6-18" style="edgeStyle=orthogonalEdgeStyle;rounded=0;orthogonalLoop=1;jettySize=auto;html=1;exitX=1;exitY=0.5;exitDx=0;exitDy=0;entryX=0.5;entryY=0;entryDx=0;entryDy=0;fontStyle=1" parent="qLB6TrJn8_BzYu4vn8R6-1" source="qLB6TrJn8_BzYu4vn8R6-21" target="qLB6TrJn8_BzYu4vn8R6-22" edge="1">
          <mxGeometry relative="1" as="geometry">
            <mxPoint x="370" y="160" as="targetPoint" />
          </mxGeometry>
        </mxCell>
        <mxCell id="qLB6TrJn8_BzYu4vn8R6-19" value="&lt;span&gt;Dose Not Have Report&lt;/span&gt;" style="edgeLabel;html=1;align=center;verticalAlign=middle;resizable=0;points=[];fontStyle=1" parent="qLB6TrJn8_BzYu4vn8R6-18" vertex="1" connectable="0">
          <mxGeometry x="-0.0565" y="-4" relative="1" as="geometry">
            <mxPoint x="25" y="-13" as="offset" />
          </mxGeometry>
        </mxCell>
        <mxCell id="tI-_Wca9PLjdo4Ln227q-14" style="edgeStyle=orthogonalEdgeStyle;rounded=0;orthogonalLoop=1;jettySize=auto;html=1;exitX=0;exitY=0.5;exitDx=0;exitDy=0;entryX=0;entryY=0.5;entryDx=0;entryDy=0;" parent="qLB6TrJn8_BzYu4vn8R6-1" source="qLB6TrJn8_BzYu4vn8R6-21" target="qLB6TrJn8_BzYu4vn8R6-17" edge="1">
          <mxGeometry relative="1" as="geometry">
            <Array as="points">
              <mxPoint x="40" y="108" />
              <mxPoint x="40" y="706" />
            </Array>
          </mxGeometry>
        </mxCell>
        <mxCell id="qLB6TrJn8_BzYu4vn8R6-21" value="" style="rhombus;whiteSpace=wrap;html=1;fontStyle=1" parent="qLB6TrJn8_BzYu4vn8R6-1" vertex="1">
          <mxGeometry x="190" y="90" width="80" height="36" as="geometry" />
        </mxCell>
        <mxCell id="qLB6TrJn8_BzYu4vn8R6-22" value="Order tests" style="rounded=1;whiteSpace=wrap;html=1;fontStyle=1" parent="qLB6TrJn8_BzYu4vn8R6-1" vertex="1">
          <mxGeometry x="310" y="140" width="100" height="40" as="geometry" />
        </mxCell>
        <mxCell id="qLB6TrJn8_BzYu4vn8R6-23" style="edgeStyle=orthogonalEdgeStyle;rounded=0;orthogonalLoop=1;jettySize=auto;html=1;exitX=0.5;exitY=1;exitDx=0;exitDy=0;fontStyle=1;entryX=0.5;entryY=0;entryDx=0;entryDy=0;" parent="qLB6TrJn8_BzYu4vn8R6-1" source="qLB6TrJn8_BzYu4vn8R6-22" target="mbWkO5gayRIkfXyZXx5O-2" edge="1">
          <mxGeometry relative="1" as="geometry">
            <mxPoint x="230" y="306" as="targetPoint" />
          </mxGeometry>
        </mxCell>
        <mxCell id="tI-_Wca9PLjdo4Ln227q-11" value="Review Report" style="rounded=1;whiteSpace=wrap;html=1;fontStyle=1" parent="qLB6TrJn8_BzYu4vn8R6-1" vertex="1">
          <mxGeometry x="110" y="786.37" width="110" height="51.25" as="geometry" />
        </mxCell>
        <mxCell id="mbWkO5gayRIkfXyZXx5O-3" style="edgeStyle=orthogonalEdgeStyle;rounded=0;orthogonalLoop=1;jettySize=auto;html=1;exitX=1;exitY=0.5;exitDx=0;exitDy=0;entryX=0.5;entryY=0;entryDx=0;entryDy=0;" parent="qLB6TrJn8_BzYu4vn8R6-1" source="mbWkO5gayRIkfXyZXx5O-2" target="qLB6TrJn8_BzYu4vn8R6-9" edge="1">
          <mxGeometry relative="1" as="geometry" />
        </mxCell>
        <mxCell id="mbWkO5gayRIkfXyZXx5O-6" style="edgeStyle=orthogonalEdgeStyle;rounded=0;orthogonalLoop=1;jettySize=auto;html=1;exitX=0;exitY=0.5;exitDx=0;exitDy=0;entryX=0.5;entryY=0;entryDx=0;entryDy=0;" parent="qLB6TrJn8_BzYu4vn8R6-1" source="mbWkO5gayRIkfXyZXx5O-2" target="qLB6TrJn8_BzYu4vn8R6-8" edge="1">
          <mxGeometry relative="1" as="geometry" />
        </mxCell>
        <mxCell id="mbWkO5gayRIkfXyZXx5O-9" style="edgeStyle=orthogonalEdgeStyle;rounded=0;orthogonalLoop=1;jettySize=auto;html=1;exitX=0.5;exitY=1;exitDx=0;exitDy=0;entryX=0.5;entryY=0;entryDx=0;entryDy=0;" parent="qLB6TrJn8_BzYu4vn8R6-1" source="mbWkO5gayRIkfXyZXx5O-2" target="qLB6TrJn8_BzYu4vn8R6-10" edge="1">
          <mxGeometry relative="1" as="geometry" />
        </mxCell>
        <mxCell id="mbWkO5gayRIkfXyZXx5O-2" value="" style="rhombus;whiteSpace=wrap;html=1;fontStyle=1" parent="qLB6TrJn8_BzYu4vn8R6-1" vertex="1">
          <mxGeometry x="190" y="220" width="80" height="36" as="geometry" />
        </mxCell>
        <mxCell id="mbWkO5gayRIkfXyZXx5O-5" value="Contains a Report" style="edgeLabel;html=1;align=center;verticalAlign=middle;resizable=0;points=[];fontStyle=1" parent="qLB6TrJn8_BzYu4vn8R6-1" vertex="1" connectable="0">
          <mxGeometry x="120.00384615384621" y="100" as="geometry" />
        </mxCell>
        <mxCell id="mbWkO5gayRIkfXyZXx5O-10" value="&lt;b&gt;Medical Procedure&lt;/b&gt;" style="text;html=1;align=center;verticalAlign=middle;resizable=0;points=[];autosize=1;strokeColor=none;fillColor=none;" parent="qLB6TrJn8_BzYu4vn8R6-1" vertex="1">
          <mxGeometry x="270" y="210" width="130" height="30" as="geometry" />
        </mxCell>
        <mxCell id="mbWkO5gayRIkfXyZXx5O-11" value="&lt;b&gt;Laboratory Work&lt;/b&gt;" style="text;html=1;align=center;verticalAlign=middle;resizable=0;points=[];autosize=1;strokeColor=none;fillColor=none;" parent="qLB6TrJn8_BzYu4vn8R6-1" vertex="1">
          <mxGeometry x="170" y="265" width="120" height="30" as="geometry" />
        </mxCell>
        <mxCell id="mbWkO5gayRIkfXyZXx5O-12" value="&lt;b&gt;Diagnositic Order&lt;/b&gt;" style="text;html=1;align=center;verticalAlign=middle;resizable=0;points=[];autosize=1;strokeColor=none;fillColor=none;" parent="qLB6TrJn8_BzYu4vn8R6-1" vertex="1">
          <mxGeometry x="70" y="208" width="120" height="30" as="geometry" />
        </mxCell>
        <mxCell id="mbWkO5gayRIkfXyZXx5O-43" style="edgeStyle=orthogonalEdgeStyle;rounded=0;orthogonalLoop=1;jettySize=auto;html=1;exitX=0;exitY=0.5;exitDx=0;exitDy=0;entryX=0.5;entryY=0;entryDx=0;entryDy=0;" parent="qLB6TrJn8_BzYu4vn8R6-1" source="mbWkO5gayRIkfXyZXx5O-42" target="tI-_Wca9PLjdo4Ln227q-11" edge="1">
          <mxGeometry relative="1" as="geometry" />
        </mxCell>
        <mxCell id="mbWkO5gayRIkfXyZXx5O-42" value="Recieve Report" style="rounded=1;whiteSpace=wrap;html=1;fontStyle=1" parent="qLB6TrJn8_BzYu4vn8R6-1" vertex="1">
          <mxGeometry x="250" y="735.12" width="110" height="51.25" as="geometry" />
        </mxCell>
        <mxCell id="hDPZ_8NJhUTKaHjRPU7a-5" style="edgeStyle=orthogonalEdgeStyle;rounded=0;orthogonalLoop=1;jettySize=auto;html=1;exitX=0;exitY=0.5;exitDx=0;exitDy=0;entryX=0.5;entryY=0;entryDx=0;entryDy=0;" edge="1" parent="qLB6TrJn8_BzYu4vn8R6-1" source="hDPZ_8NJhUTKaHjRPU7a-3" target="qLB6TrJn8_BzYu4vn8R6-17">
          <mxGeometry relative="1" as="geometry" />
        </mxCell>
        <mxCell id="hDPZ_8NJhUTKaHjRPU7a-3" value="Receive the Notification" style="rounded=1;whiteSpace=wrap;html=1;fontStyle=1" vertex="1" parent="qLB6TrJn8_BzYu4vn8R6-1">
          <mxGeometry x="285" y="550" width="100" height="40" as="geometry" />
        </mxCell>
        <mxCell id="qLB6TrJn8_BzYu4vn8R6-27" value="Health Guardian System" style="swimlane;whiteSpace=wrap;html=1;fontStyle=1" parent="1" vertex="1">
          <mxGeometry x="330" y="-140" width="660" height="990" as="geometry">
            <mxRectangle x="330" y="-140" width="180" height="30" as="alternateBounds" />
          </mxGeometry>
        </mxCell>
        <mxCell id="qLB6TrJn8_BzYu4vn8R6-28" style="edgeStyle=orthogonalEdgeStyle;rounded=0;orthogonalLoop=1;jettySize=auto;html=1;exitX=0.5;exitY=1;exitDx=0;exitDy=0;entryX=0.5;entryY=0;entryDx=0;entryDy=0;" parent="qLB6TrJn8_BzYu4vn8R6-27" source="qLB6TrJn8_BzYu4vn8R6-29" target="mbWkO5gayRIkfXyZXx5O-30" edge="1">
          <mxGeometry relative="1" as="geometry">
            <mxPoint x="240.32999999999993" y="164.17499999999995" as="targetPoint" />
          </mxGeometry>
        </mxCell>
        <mxCell id="qLB6TrJn8_BzYu4vn8R6-29" value="Receive Request" style="rounded=1;whiteSpace=wrap;html=1;fontStyle=1" parent="qLB6TrJn8_BzYu4vn8R6-27" vertex="1">
          <mxGeometry x="447.5" y="35" width="120" height="60" as="geometry" />
        </mxCell>
        <mxCell id="qLB6TrJn8_BzYu4vn8R6-31" value="Diagnostic Test" style="rounded=1;whiteSpace=wrap;html=1;fontStyle=1" parent="qLB6TrJn8_BzYu4vn8R6-27" vertex="1">
          <mxGeometry x="84" y="200" width="100" height="30" as="geometry" />
        </mxCell>
        <mxCell id="qLB6TrJn8_BzYu4vn8R6-32" value="Medical Procedure" style="rounded=1;whiteSpace=wrap;html=1;fontStyle=1" parent="qLB6TrJn8_BzYu4vn8R6-27" vertex="1">
          <mxGeometry x="280" y="210" width="100" height="40" as="geometry" />
        </mxCell>
        <mxCell id="qLB6TrJn8_BzYu4vn8R6-33" value="" style="edgeStyle=orthogonalEdgeStyle;rounded=0;orthogonalLoop=1;jettySize=auto;html=1;" parent="qLB6TrJn8_BzYu4vn8R6-27" source="qLB6TrJn8_BzYu4vn8R6-34" target="qLB6TrJn8_BzYu4vn8R6-56" edge="1">
          <mxGeometry relative="1" as="geometry" />
        </mxCell>
        <mxCell id="qLB6TrJn8_BzYu4vn8R6-34" value="Lab Work" style="rounded=1;whiteSpace=wrap;html=1;fontStyle=1" parent="qLB6TrJn8_BzYu4vn8R6-27" vertex="1">
          <mxGeometry x="430" y="180" width="100" height="30" as="geometry" />
        </mxCell>
        <mxCell id="qLB6TrJn8_BzYu4vn8R6-39" value="" style="endArrow=classic;html=1;rounded=0;exitX=0.5;exitY=1;exitDx=0;exitDy=0;entryX=0;entryY=0.5;entryDx=0;entryDy=0;" parent="qLB6TrJn8_BzYu4vn8R6-27" source="qLB6TrJn8_BzYu4vn8R6-31" target="mbWkO5gayRIkfXyZXx5O-35" edge="1">
          <mxGeometry width="50" height="50" relative="1" as="geometry">
            <mxPoint x="257" y="177" as="sourcePoint" />
            <mxPoint x="130" y="280" as="targetPoint" />
          </mxGeometry>
        </mxCell>
        <mxCell id="qLB6TrJn8_BzYu4vn8R6-40" value="" style="endArrow=classic;html=1;rounded=0;exitX=0.5;exitY=1;exitDx=0;exitDy=0;entryX=1;entryY=0.5;entryDx=0;entryDy=0;" parent="qLB6TrJn8_BzYu4vn8R6-27" source="qLB6TrJn8_BzYu4vn8R6-32" target="mbWkO5gayRIkfXyZXx5O-35" edge="1">
          <mxGeometry width="50" height="50" relative="1" as="geometry">
            <mxPoint x="270" y="300" as="sourcePoint" />
            <mxPoint x="270" y="290" as="targetPoint" />
          </mxGeometry>
        </mxCell>
        <mxCell id="qLB6TrJn8_BzYu4vn8R6-41" value="" style="edgeStyle=orthogonalEdgeStyle;rounded=0;orthogonalLoop=1;jettySize=auto;html=1;" parent="qLB6TrJn8_BzYu4vn8R6-27" source="qLB6TrJn8_BzYu4vn8R6-42" target="qLB6TrJn8_BzYu4vn8R6-45" edge="1">
          <mxGeometry relative="1" as="geometry" />
        </mxCell>
        <mxCell id="qLB6TrJn8_BzYu4vn8R6-42" value="Inform Patient" style="rounded=1;whiteSpace=wrap;html=1;fontStyle=1" parent="qLB6TrJn8_BzYu4vn8R6-27" vertex="1">
          <mxGeometry x="127.5" y="350" width="100" height="40" as="geometry" />
        </mxCell>
        <mxCell id="qLB6TrJn8_BzYu4vn8R6-44" style="edgeStyle=orthogonalEdgeStyle;rounded=0;orthogonalLoop=1;jettySize=auto;html=1;exitX=0;exitY=0.5;exitDx=0;exitDy=0;entryX=0.5;entryY=0;entryDx=0;entryDy=0;" parent="qLB6TrJn8_BzYu4vn8R6-27" source="qLB6TrJn8_BzYu4vn8R6-45" target="qLB6TrJn8_BzYu4vn8R6-53" edge="1">
          <mxGeometry relative="1" as="geometry">
            <mxPoint x="120" y="530" as="targetPoint" />
          </mxGeometry>
        </mxCell>
        <mxCell id="qLB6TrJn8_BzYu4vn8R6-45" value="" style="rhombus;whiteSpace=wrap;html=1;fontStyle=1" parent="qLB6TrJn8_BzYu4vn8R6-27" vertex="1">
          <mxGeometry x="180" y="460" width="80" height="36" as="geometry" />
        </mxCell>
        <mxCell id="qLB6TrJn8_BzYu4vn8R6-46" style="edgeStyle=orthogonalEdgeStyle;rounded=0;orthogonalLoop=1;jettySize=auto;html=1;exitX=0;exitY=0.5;exitDx=0;exitDy=0;entryX=0.5;entryY=0;entryDx=0;entryDy=0;" parent="qLB6TrJn8_BzYu4vn8R6-27" source="qLB6TrJn8_BzYu4vn8R6-47" target="qLB6TrJn8_BzYu4vn8R6-49" edge="1">
          <mxGeometry relative="1" as="geometry" />
        </mxCell>
        <mxCell id="qLB6TrJn8_BzYu4vn8R6-47" value="" style="rhombus;whiteSpace=wrap;html=1;fontStyle=1" parent="qLB6TrJn8_BzYu4vn8R6-27" vertex="1">
          <mxGeometry x="440" y="324" width="80" height="36" as="geometry" />
        </mxCell>
        <mxCell id="qLB6TrJn8_BzYu4vn8R6-48" style="edgeStyle=orthogonalEdgeStyle;rounded=0;orthogonalLoop=1;jettySize=auto;html=1;exitX=0.5;exitY=1;exitDx=0;exitDy=0;entryX=1;entryY=0.5;entryDx=0;entryDy=0;" parent="qLB6TrJn8_BzYu4vn8R6-27" source="qLB6TrJn8_BzYu4vn8R6-49" target="mbWkO5gayRIkfXyZXx5O-37" edge="1">
          <mxGeometry relative="1" as="geometry">
            <mxPoint x="520" y="530" as="targetPoint" />
          </mxGeometry>
        </mxCell>
        <mxCell id="qLB6TrJn8_BzYu4vn8R6-49" value="Return Lab Work Report" style="rounded=1;whiteSpace=wrap;html=1;fontStyle=1" parent="qLB6TrJn8_BzYu4vn8R6-27" vertex="1">
          <mxGeometry x="320" y="410" width="100" height="40" as="geometry" />
        </mxCell>
        <mxCell id="qLB6TrJn8_BzYu4vn8R6-50" value="&lt;b&gt;Lab Completes&lt;br&gt;&amp;nbsp;the test&lt;/b&gt;" style="text;html=1;align=center;verticalAlign=middle;resizable=0;points=[];autosize=1;strokeColor=none;fillColor=none;" parent="qLB6TrJn8_BzYu4vn8R6-27" vertex="1">
          <mxGeometry x="280" y="326" width="110" height="40" as="geometry" />
        </mxCell>
        <mxCell id="qLB6TrJn8_BzYu4vn8R6-51" value="&lt;b&gt;Lab does not &lt;br&gt;complete the test yet&lt;/b&gt;" style="text;html=1;align=center;verticalAlign=middle;resizable=0;points=[];autosize=1;strokeColor=none;fillColor=none;" parent="qLB6TrJn8_BzYu4vn8R6-27" vertex="1">
          <mxGeometry x="510" y="300" width="140" height="40" as="geometry" />
        </mxCell>
        <mxCell id="mbWkO5gayRIkfXyZXx5O-38" style="edgeStyle=orthogonalEdgeStyle;rounded=0;orthogonalLoop=1;jettySize=auto;html=1;exitX=1;exitY=0.5;exitDx=0;exitDy=0;entryX=0;entryY=0.5;entryDx=0;entryDy=0;" parent="qLB6TrJn8_BzYu4vn8R6-27" source="qLB6TrJn8_BzYu4vn8R6-53" target="mbWkO5gayRIkfXyZXx5O-37" edge="1">
          <mxGeometry relative="1" as="geometry" />
        </mxCell>
        <mxCell id="qLB6TrJn8_BzYu4vn8R6-53" value="Return Test Report" style="rounded=1;whiteSpace=wrap;html=1;fontStyle=1" parent="qLB6TrJn8_BzYu4vn8R6-27" vertex="1">
          <mxGeometry x="80" y="510" width="100" height="40" as="geometry" />
        </mxCell>
        <mxCell id="qLB6TrJn8_BzYu4vn8R6-55" value="" style="edgeStyle=orthogonalEdgeStyle;rounded=0;orthogonalLoop=1;jettySize=auto;html=1;entryX=0.5;entryY=0;entryDx=0;entryDy=0;" parent="qLB6TrJn8_BzYu4vn8R6-27" source="qLB6TrJn8_BzYu4vn8R6-56" target="qLB6TrJn8_BzYu4vn8R6-47" edge="1">
          <mxGeometry relative="1" as="geometry" />
        </mxCell>
        <mxCell id="qLB6TrJn8_BzYu4vn8R6-56" value="Inform Lab" style="rounded=1;whiteSpace=wrap;html=1;fontStyle=1" parent="qLB6TrJn8_BzYu4vn8R6-27" vertex="1">
          <mxGeometry x="430" y="240" width="100" height="30" as="geometry" />
        </mxCell>
        <mxCell id="qLB6TrJn8_BzYu4vn8R6-57" value="Send Reports" style="rounded=1;whiteSpace=wrap;html=1;fontStyle=1" parent="qLB6TrJn8_BzYu4vn8R6-27" vertex="1">
          <mxGeometry x="200" y="816.3699999999999" width="100" height="40" as="geometry" />
        </mxCell>
        <mxCell id="tI-_Wca9PLjdo4Ln227q-3" value="" style="endArrow=classic;html=1;rounded=0;exitX=0.5;exitY=1;exitDx=0;exitDy=0;entryX=0.5;entryY=0;entryDx=0;entryDy=0;" parent="qLB6TrJn8_BzYu4vn8R6-27" source="mbWkO5gayRIkfXyZXx5O-37" target="tI-_Wca9PLjdo4Ln227q-5" edge="1">
          <mxGeometry width="50" height="50" relative="1" as="geometry">
            <mxPoint x="497.0799999999999" y="610.0000000000005" as="sourcePoint" />
            <mxPoint x="390" y="796.72" as="targetPoint" />
          </mxGeometry>
        </mxCell>
        <mxCell id="tI-_Wca9PLjdo4Ln227q-21" value="" style="edgeStyle=orthogonalEdgeStyle;rounded=0;orthogonalLoop=1;jettySize=auto;html=1;entryX=1;entryY=0.5;entryDx=0;entryDy=0;" parent="qLB6TrJn8_BzYu4vn8R6-27" source="tI-_Wca9PLjdo4Ln227q-5" target="hDPZ_8NJhUTKaHjRPU7a-7" edge="1">
          <mxGeometry relative="1" as="geometry">
            <mxPoint x="497.50000000000045" y="722" as="targetPoint" />
          </mxGeometry>
        </mxCell>
        <mxCell id="tI-_Wca9PLjdo4Ln227q-5" value="Store Report in Test Record Database" style="rounded=1;whiteSpace=wrap;html=1;fontStyle=1" parent="qLB6TrJn8_BzYu4vn8R6-27" vertex="1">
          <mxGeometry x="447.5" y="652" width="100" height="40" as="geometry" />
        </mxCell>
        <mxCell id="tI-_Wca9PLjdo4Ln227q-33" style="edgeStyle=orthogonalEdgeStyle;rounded=0;orthogonalLoop=1;jettySize=auto;html=1;exitX=0.5;exitY=1;exitDx=0;exitDy=0;entryX=1;entryY=0.5;entryDx=0;entryDy=0;" parent="qLB6TrJn8_BzYu4vn8R6-27" source="tI-_Wca9PLjdo4Ln227q-29" target="qLB6TrJn8_BzYu4vn8R6-57" edge="1">
          <mxGeometry relative="1" as="geometry" />
        </mxCell>
        <mxCell id="tI-_Wca9PLjdo4Ln227q-29" value="Recieve Retrieve Report Request" style="rounded=1;whiteSpace=wrap;html=1;fontStyle=1" parent="qLB6TrJn8_BzYu4vn8R6-27" vertex="1">
          <mxGeometry x="380" y="841.9999999999999" width="100" height="40" as="geometry" />
        </mxCell>
        <mxCell id="mbWkO5gayRIkfXyZXx5O-31" style="edgeStyle=orthogonalEdgeStyle;rounded=0;orthogonalLoop=1;jettySize=auto;html=1;exitX=1;exitY=0.5;exitDx=0;exitDy=0;entryX=0.5;entryY=0;entryDx=0;entryDy=0;" parent="qLB6TrJn8_BzYu4vn8R6-27" source="mbWkO5gayRIkfXyZXx5O-30" target="qLB6TrJn8_BzYu4vn8R6-34" edge="1">
          <mxGeometry relative="1" as="geometry" />
        </mxCell>
        <mxCell id="mbWkO5gayRIkfXyZXx5O-32" style="edgeStyle=orthogonalEdgeStyle;rounded=0;orthogonalLoop=1;jettySize=auto;html=1;exitX=0;exitY=0.5;exitDx=0;exitDy=0;entryX=0.5;entryY=0;entryDx=0;entryDy=0;" parent="qLB6TrJn8_BzYu4vn8R6-27" source="mbWkO5gayRIkfXyZXx5O-30" target="qLB6TrJn8_BzYu4vn8R6-31" edge="1">
          <mxGeometry relative="1" as="geometry" />
        </mxCell>
        <mxCell id="mbWkO5gayRIkfXyZXx5O-34" value="" style="edgeStyle=orthogonalEdgeStyle;rounded=0;orthogonalLoop=1;jettySize=auto;html=1;" parent="qLB6TrJn8_BzYu4vn8R6-27" source="mbWkO5gayRIkfXyZXx5O-30" target="qLB6TrJn8_BzYu4vn8R6-32" edge="1">
          <mxGeometry relative="1" as="geometry" />
        </mxCell>
        <mxCell id="mbWkO5gayRIkfXyZXx5O-30" value="" style="rhombus;whiteSpace=wrap;html=1;fontStyle=1" parent="qLB6TrJn8_BzYu4vn8R6-27" vertex="1">
          <mxGeometry x="290" y="140" width="80" height="36" as="geometry" />
        </mxCell>
        <mxCell id="mbWkO5gayRIkfXyZXx5O-36" value="" style="edgeStyle=orthogonalEdgeStyle;rounded=0;orthogonalLoop=1;jettySize=auto;html=1;" parent="qLB6TrJn8_BzYu4vn8R6-27" source="mbWkO5gayRIkfXyZXx5O-35" target="qLB6TrJn8_BzYu4vn8R6-42" edge="1">
          <mxGeometry relative="1" as="geometry" />
        </mxCell>
        <mxCell id="mbWkO5gayRIkfXyZXx5O-35" value="" style="rhombus;whiteSpace=wrap;html=1;fontStyle=1" parent="qLB6TrJn8_BzYu4vn8R6-27" vertex="1">
          <mxGeometry x="137.5" y="280" width="80" height="36" as="geometry" />
        </mxCell>
        <mxCell id="mbWkO5gayRIkfXyZXx5O-37" value="" style="rhombus;whiteSpace=wrap;html=1;fontStyle=1" parent="qLB6TrJn8_BzYu4vn8R6-27" vertex="1">
          <mxGeometry x="457.5" y="560" width="80" height="36" as="geometry" />
        </mxCell>
        <mxCell id="mbWkO5gayRIkfXyZXx5O-39" value="&lt;b&gt;Laboratory Work Request&lt;/b&gt;" style="text;html=1;align=center;verticalAlign=middle;resizable=0;points=[];autosize=1;strokeColor=none;fillColor=none;" parent="qLB6TrJn8_BzYu4vn8R6-27" vertex="1">
          <mxGeometry x="342.5" y="124" width="170" height="30" as="geometry" />
        </mxCell>
        <mxCell id="mbWkO5gayRIkfXyZXx5O-40" value="&lt;b&gt;Procedure Request&lt;/b&gt;" style="text;html=1;align=center;verticalAlign=middle;resizable=0;points=[];autosize=1;strokeColor=none;fillColor=none;" parent="qLB6TrJn8_BzYu4vn8R6-27" vertex="1">
          <mxGeometry x="265" y="176" width="130" height="30" as="geometry" />
        </mxCell>
        <mxCell id="mbWkO5gayRIkfXyZXx5O-41" value="&lt;b&gt;Diagnositic Request&lt;/b&gt;" style="text;html=1;align=center;verticalAlign=middle;resizable=0;points=[];autosize=1;strokeColor=none;fillColor=none;" parent="qLB6TrJn8_BzYu4vn8R6-27" vertex="1">
          <mxGeometry x="110" y="124" width="140" height="30" as="geometry" />
        </mxCell>
        <mxCell id="hDPZ_8NJhUTKaHjRPU7a-7" value="Send Notification of Existing a Result" style="rounded=1;whiteSpace=wrap;html=1;fontStyle=1" vertex="1" parent="qLB6TrJn8_BzYu4vn8R6-27">
          <mxGeometry x="265" y="612" width="100" height="40" as="geometry" />
        </mxCell>
        <mxCell id="qLB6TrJn8_BzYu4vn8R6-61" value="" style="group;fontStyle=1" parent="1" vertex="1" connectable="0">
          <mxGeometry x="-150" y="880" width="75" height="70" as="geometry" />
        </mxCell>
        <mxCell id="qLB6TrJn8_BzYu4vn8R6-62" value="" style="ellipse;whiteSpace=wrap;html=1;aspect=fixed;fontStyle=1" parent="qLB6TrJn8_BzYu4vn8R6-61" vertex="1">
          <mxGeometry width="70" height="70" as="geometry" />
        </mxCell>
        <mxCell id="qLB6TrJn8_BzYu4vn8R6-63" value="" style="ellipse;whiteSpace=wrap;html=1;aspect=fixed;fillColor=#000000;fontStyle=1" parent="qLB6TrJn8_BzYu4vn8R6-61" vertex="1">
          <mxGeometry x="9.375" y="8.75" width="52.5" height="52.5" as="geometry" />
        </mxCell>
        <mxCell id="qLB6TrJn8_BzYu4vn8R6-64" value="" style="ellipse;whiteSpace=wrap;html=1;aspect=fixed;fillColor=#000000;" parent="1" vertex="1">
          <mxGeometry x="-75" y="-250" width="50" height="50" as="geometry" />
        </mxCell>
        <mxCell id="qLB6TrJn8_BzYu4vn8R6-65" value="" style="endArrow=classic;html=1;rounded=0;exitX=0.5;exitY=1;exitDx=0;exitDy=0;entryX=0.5;entryY=0;entryDx=0;entryDy=0;fontStyle=1" parent="1" source="qLB6TrJn8_BzYu4vn8R6-64" target="qLB6TrJn8_BzYu4vn8R6-3" edge="1">
          <mxGeometry width="50" height="50" relative="1" as="geometry">
            <mxPoint x="-38" y="370" as="sourcePoint" />
            <mxPoint x="-88" y="160" as="targetPoint" />
          </mxGeometry>
        </mxCell>
        <mxCell id="qLB6TrJn8_BzYu4vn8R6-69" style="edgeStyle=orthogonalEdgeStyle;rounded=0;orthogonalLoop=1;jettySize=auto;html=1;exitX=1;exitY=0.5;exitDx=0;exitDy=0;entryX=0;entryY=0.5;entryDx=0;entryDy=0;" parent="1" source="qLB6TrJn8_BzYu4vn8R6-47" target="qLB6TrJn8_BzYu4vn8R6-71" edge="1">
          <mxGeometry relative="1" as="geometry">
            <mxPoint x="1050" y="140" as="targetPoint" />
          </mxGeometry>
        </mxCell>
        <mxCell id="qLB6TrJn8_BzYu4vn8R6-70" value="" style="group;fontStyle=1" parent="1" vertex="1" connectable="0">
          <mxGeometry x="1010" y="167" width="75" height="70" as="geometry" />
        </mxCell>
        <mxCell id="qLB6TrJn8_BzYu4vn8R6-71" value="" style="ellipse;whiteSpace=wrap;html=1;aspect=fixed;fontStyle=1" parent="qLB6TrJn8_BzYu4vn8R6-70" vertex="1">
          <mxGeometry width="70" height="70" as="geometry" />
        </mxCell>
        <mxCell id="qLB6TrJn8_BzYu4vn8R6-72" value="" style="ellipse;whiteSpace=wrap;html=1;aspect=fixed;fillColor=#000000;fontStyle=1" parent="qLB6TrJn8_BzYu4vn8R6-70" vertex="1">
          <mxGeometry x="9.375" y="8.75" width="52.5" height="52.5" as="geometry" />
        </mxCell>
        <mxCell id="qLB6TrJn8_BzYu4vn8R6-73" value="&lt;b&gt;Patient Complete &lt;br&gt;the test&lt;/b&gt;" style="text;html=1;align=center;verticalAlign=middle;resizable=0;points=[];autosize=1;strokeColor=none;fillColor=none;" parent="1" vertex="1">
          <mxGeometry x="390" y="303" width="120" height="40" as="geometry" />
        </mxCell>
        <mxCell id="qLB6TrJn8_BzYu4vn8R6-74" value="" style="group;fontStyle=1" parent="1" vertex="1" connectable="0">
          <mxGeometry x="1010" y="303" width="75" height="70" as="geometry" />
        </mxCell>
        <mxCell id="qLB6TrJn8_BzYu4vn8R6-75" value="" style="ellipse;whiteSpace=wrap;html=1;aspect=fixed;fontStyle=1" parent="qLB6TrJn8_BzYu4vn8R6-74" vertex="1">
          <mxGeometry width="70" height="70" as="geometry" />
        </mxCell>
        <mxCell id="qLB6TrJn8_BzYu4vn8R6-76" value="" style="ellipse;whiteSpace=wrap;html=1;aspect=fixed;fillColor=#000000;fontStyle=1" parent="qLB6TrJn8_BzYu4vn8R6-74" vertex="1">
          <mxGeometry x="9.375" y="8.75" width="52.5" height="52.5" as="geometry" />
        </mxCell>
        <mxCell id="qLB6TrJn8_BzYu4vn8R6-77" style="edgeStyle=orthogonalEdgeStyle;rounded=0;orthogonalLoop=1;jettySize=auto;html=1;exitX=1;exitY=0.5;exitDx=0;exitDy=0;entryX=0;entryY=0.5;entryDx=0;entryDy=0;" parent="1" source="qLB6TrJn8_BzYu4vn8R6-45" target="qLB6TrJn8_BzYu4vn8R6-75" edge="1">
          <mxGeometry relative="1" as="geometry">
            <mxPoint x="1040" y="338" as="targetPoint" />
          </mxGeometry>
        </mxCell>
        <mxCell id="qLB6TrJn8_BzYu4vn8R6-78" value="&lt;b style=&quot;font-size: 12px;&quot;&gt;Patient does not &lt;br&gt;complete the test yet&lt;/b&gt;" style="edgeLabel;html=1;align=center;verticalAlign=middle;resizable=0;points=[];" parent="qLB6TrJn8_BzYu4vn8R6-77" vertex="1" connectable="0">
          <mxGeometry x="-0.4874" y="-3" relative="1" as="geometry">
            <mxPoint x="193" y="-21" as="offset" />
          </mxGeometry>
        </mxCell>
        <mxCell id="qLB6TrJn8_BzYu4vn8R6-79" style="edgeStyle=orthogonalEdgeStyle;rounded=0;orthogonalLoop=1;jettySize=auto;html=1;exitX=0;exitY=0.5;exitDx=0;exitDy=0;dashed=1;entryX=1;entryY=0.5;entryDx=0;entryDy=0;" parent="1" source="qLB6TrJn8_BzYu4vn8R6-80" target="mbWkO5gayRIkfXyZXx5O-42" edge="1">
          <mxGeometry relative="1" as="geometry">
            <mxPoint x="100" y="610" as="targetPoint" />
          </mxGeometry>
        </mxCell>
        <mxCell id="qLB6TrJn8_BzYu4vn8R6-80" value="Report Content and Informaiton" style="rounded=0;whiteSpace=wrap;html=1;fontStyle=1" parent="1" vertex="1">
          <mxGeometry x="234" y="646.37" width="110" height="50" as="geometry" />
        </mxCell>
        <mxCell id="qLB6TrJn8_BzYu4vn8R6-81" style="edgeStyle=orthogonalEdgeStyle;rounded=0;orthogonalLoop=1;jettySize=auto;html=1;exitX=0;exitY=0.5;exitDx=0;exitDy=0;entryX=1;entryY=0.5;entryDx=0;entryDy=0;dashed=1;" parent="1" source="qLB6TrJn8_BzYu4vn8R6-57" target="qLB6TrJn8_BzYu4vn8R6-80" edge="1">
          <mxGeometry relative="1" as="geometry" />
        </mxCell>
        <mxCell id="qLB6TrJn8_BzYu4vn8R6-82" style="edgeStyle=orthogonalEdgeStyle;rounded=0;orthogonalLoop=1;jettySize=auto;html=1;exitX=0.5;exitY=1;exitDx=0;exitDy=0;entryX=0.5;entryY=1;entryDx=0;entryDy=0;" parent="1" source="qLB6TrJn8_BzYu4vn8R6-57" target="mbWkO5gayRIkfXyZXx5O-42" edge="1">
          <mxGeometry relative="1" as="geometry">
            <mxPoint x="60" y="680" as="targetPoint" />
            <Array as="points">
              <mxPoint x="580" y="736" />
              <mxPoint x="25" y="736" />
            </Array>
          </mxGeometry>
        </mxCell>
        <mxCell id="tI-_Wca9PLjdo4Ln227q-16" style="edgeStyle=orthogonalEdgeStyle;rounded=0;orthogonalLoop=1;jettySize=auto;html=1;exitX=0.5;exitY=1;exitDx=0;exitDy=0;entryX=0.5;entryY=0;entryDx=0;entryDy=0;" parent="1" source="tI-_Wca9PLjdo4Ln227q-11" target="qLB6TrJn8_BzYu4vn8R6-62" edge="1">
          <mxGeometry relative="1" as="geometry" />
        </mxCell>
        <mxCell id="tI-_Wca9PLjdo4Ln227q-17" style="edgeStyle=orthogonalEdgeStyle;rounded=0;orthogonalLoop=1;jettySize=auto;html=1;exitX=1;exitY=0.5;exitDx=0;exitDy=0;dashed=1;entryX=0;entryY=0.5;entryDx=0;entryDy=0;" parent="1" source="qLB6TrJn8_BzYu4vn8R6-17" target="tI-_Wca9PLjdo4Ln227q-18" edge="1">
          <mxGeometry relative="1" as="geometry">
            <mxPoint x="220" y="517.9473684210529" as="targetPoint" />
          </mxGeometry>
        </mxCell>
        <mxCell id="tI-_Wca9PLjdo4Ln227q-28" style="edgeStyle=orthogonalEdgeStyle;rounded=0;orthogonalLoop=1;jettySize=auto;html=1;exitX=1;exitY=0.5;exitDx=0;exitDy=0;entryX=0.25;entryY=0;entryDx=0;entryDy=0;dashed=1;" parent="1" source="tI-_Wca9PLjdo4Ln227q-18" target="tI-_Wca9PLjdo4Ln227q-29" edge="1">
          <mxGeometry relative="1" as="geometry">
            <mxPoint x="720" y="672" as="targetPoint" />
          </mxGeometry>
        </mxCell>
        <mxCell id="tI-_Wca9PLjdo4Ln227q-18" value="Retrieve Report Request Informaiton" style="rounded=0;whiteSpace=wrap;html=1;fontStyle=1" parent="1" vertex="1">
          <mxGeometry x="244" y="555" width="110" height="50" as="geometry" />
        </mxCell>
        <mxCell id="UXSKUlsN-t5uCTeaCbZ4-2" style="edgeStyle=orthogonalEdgeStyle;rounded=0;orthogonalLoop=1;jettySize=auto;html=1;exitX=0.75;exitY=0;exitDx=0;exitDy=0;entryX=0;entryY=0;entryDx=0;entryDy=0;" parent="1" source="qLB6TrJn8_BzYu4vn8R6-17" target="tI-_Wca9PLjdo4Ln227q-29" edge="1">
          <mxGeometry relative="1" as="geometry">
            <Array as="points">
              <mxPoint x="710" y="540" />
            </Array>
          </mxGeometry>
        </mxCell>
        <mxCell id="mbWkO5gayRIkfXyZXx5O-18" style="edgeStyle=orthogonalEdgeStyle;rounded=0;orthogonalLoop=1;jettySize=auto;html=1;exitX=1;exitY=0.5;exitDx=0;exitDy=0;entryX=0;entryY=0.25;entryDx=0;entryDy=0;dashed=1;" parent="1" source="mbWkO5gayRIkfXyZXx5O-13" target="qLB6TrJn8_BzYu4vn8R6-29" edge="1">
          <mxGeometry relative="1" as="geometry" />
        </mxCell>
        <mxCell id="mbWkO5gayRIkfXyZXx5O-13" value="Medical Procedure Request Information" style="rounded=0;whiteSpace=wrap;html=1;fontStyle=1" parent="1" vertex="1">
          <mxGeometry x="234" y="-100" width="110" height="50" as="geometry" />
        </mxCell>
        <mxCell id="mbWkO5gayRIkfXyZXx5O-14" style="edgeStyle=orthogonalEdgeStyle;rounded=0;orthogonalLoop=1;jettySize=auto;html=1;exitX=1;exitY=0.5;exitDx=0;exitDy=0;entryX=0;entryY=0.5;entryDx=0;entryDy=0;dashed=1;" parent="1" source="qLB6TrJn8_BzYu4vn8R6-9" target="mbWkO5gayRIkfXyZXx5O-13" edge="1">
          <mxGeometry relative="1" as="geometry" />
        </mxCell>
        <mxCell id="mbWkO5gayRIkfXyZXx5O-17" style="edgeStyle=orthogonalEdgeStyle;rounded=0;orthogonalLoop=1;jettySize=auto;html=1;exitX=0.75;exitY=0;exitDx=0;exitDy=0;entryX=0.5;entryY=0;entryDx=0;entryDy=0;" parent="1" source="qLB6TrJn8_BzYu4vn8R6-9" target="qLB6TrJn8_BzYu4vn8R6-29" edge="1">
          <mxGeometry relative="1" as="geometry">
            <Array as="points">
              <mxPoint x="180" y="120" />
              <mxPoint x="180" y="-110" />
              <mxPoint x="838" y="-110" />
            </Array>
          </mxGeometry>
        </mxCell>
        <mxCell id="mbWkO5gayRIkfXyZXx5O-20" value="Lab Work Request Informatoin" style="rounded=0;whiteSpace=wrap;html=1;fontStyle=1" parent="1" vertex="1">
          <mxGeometry x="234" width="110" height="50" as="geometry" />
        </mxCell>
        <mxCell id="mbWkO5gayRIkfXyZXx5O-21" style="edgeStyle=orthogonalEdgeStyle;rounded=0;orthogonalLoop=1;jettySize=auto;html=1;exitX=1;exitY=0.5;exitDx=0;exitDy=0;entryX=0.5;entryY=1;entryDx=0;entryDy=0;dashed=1;" parent="1" source="qLB6TrJn8_BzYu4vn8R6-10" target="mbWkO5gayRIkfXyZXx5O-20" edge="1">
          <mxGeometry relative="1" as="geometry" />
        </mxCell>
        <mxCell id="mbWkO5gayRIkfXyZXx5O-23" value="" style="endArrow=classic;html=1;rounded=0;entryX=0;entryY=0.5;entryDx=0;entryDy=0;exitX=0.5;exitY=0;exitDx=0;exitDy=0;dashed=1;" parent="1" source="mbWkO5gayRIkfXyZXx5O-20" target="qLB6TrJn8_BzYu4vn8R6-29" edge="1">
          <mxGeometry width="50" height="50" relative="1" as="geometry">
            <mxPoint x="289" y="-10" as="sourcePoint" />
            <mxPoint x="370" y="60" as="targetPoint" />
          </mxGeometry>
        </mxCell>
        <mxCell id="mbWkO5gayRIkfXyZXx5O-25" style="edgeStyle=orthogonalEdgeStyle;rounded=0;orthogonalLoop=1;jettySize=auto;html=1;exitX=0.75;exitY=1;exitDx=0;exitDy=0;entryX=0;entryY=0.75;entryDx=0;entryDy=0;" parent="1" source="qLB6TrJn8_BzYu4vn8R6-10" target="qLB6TrJn8_BzYu4vn8R6-29" edge="1">
          <mxGeometry relative="1" as="geometry">
            <Array as="points">
              <mxPoint x="-25" y="260" />
              <mxPoint x="380" y="260" />
              <mxPoint x="380" y="-60" />
            </Array>
          </mxGeometry>
        </mxCell>
        <mxCell id="mbWkO5gayRIkfXyZXx5O-28" style="edgeStyle=orthogonalEdgeStyle;rounded=0;orthogonalLoop=1;jettySize=auto;html=1;exitX=1;exitY=0.5;exitDx=0;exitDy=0;entryX=0.25;entryY=1;entryDx=0;entryDy=0;dashed=1;" parent="1" source="mbWkO5gayRIkfXyZXx5O-26" target="qLB6TrJn8_BzYu4vn8R6-29" edge="1">
          <mxGeometry relative="1" as="geometry">
            <Array as="points">
              <mxPoint x="354" y="-30" />
              <mxPoint x="808" y="-30" />
            </Array>
          </mxGeometry>
        </mxCell>
        <mxCell id="mbWkO5gayRIkfXyZXx5O-26" value="Diagnositic Test Request Information" style="rounded=0;whiteSpace=wrap;html=1;fontStyle=1" parent="1" vertex="1">
          <mxGeometry x="244" y="343" width="110" height="50" as="geometry" />
        </mxCell>
        <mxCell id="mbWkO5gayRIkfXyZXx5O-27" style="edgeStyle=orthogonalEdgeStyle;rounded=0;orthogonalLoop=1;jettySize=auto;html=1;exitX=0.5;exitY=1;exitDx=0;exitDy=0;entryX=0;entryY=0.5;entryDx=0;entryDy=0;dashed=1;" parent="1" source="qLB6TrJn8_BzYu4vn8R6-8" target="mbWkO5gayRIkfXyZXx5O-26" edge="1">
          <mxGeometry relative="1" as="geometry" />
        </mxCell>
        <mxCell id="mbWkO5gayRIkfXyZXx5O-29" style="edgeStyle=orthogonalEdgeStyle;rounded=0;orthogonalLoop=1;jettySize=auto;html=1;exitX=0.25;exitY=1;exitDx=0;exitDy=0;entryX=0.25;entryY=0;entryDx=0;entryDy=0;" parent="1" source="qLB6TrJn8_BzYu4vn8R6-8" target="qLB6TrJn8_BzYu4vn8R6-29" edge="1">
          <mxGeometry relative="1" as="geometry">
            <Array as="points">
              <mxPoint x="-205" y="300" />
              <mxPoint x="400" y="300" />
              <mxPoint x="400" y="-180" />
              <mxPoint x="808" y="-180" />
              <mxPoint x="808" y="-105" />
            </Array>
          </mxGeometry>
        </mxCell>
        <mxCell id="hDPZ_8NJhUTKaHjRPU7a-4" style="edgeStyle=orthogonalEdgeStyle;rounded=0;orthogonalLoop=1;jettySize=auto;html=1;exitX=0;exitY=0.5;exitDx=0;exitDy=0;entryX=1;entryY=0.5;entryDx=0;entryDy=0;dashed=1;" edge="1" parent="1" source="hDPZ_8NJhUTKaHjRPU7a-2" target="hDPZ_8NJhUTKaHjRPU7a-3">
          <mxGeometry relative="1" as="geometry" />
        </mxCell>
        <mxCell id="hDPZ_8NJhUTKaHjRPU7a-2" value="Notification for Exists a Report" style="rounded=0;whiteSpace=wrap;html=1;fontStyle=1" vertex="1" parent="1">
          <mxGeometry x="244" y="410" width="110" height="50" as="geometry" />
        </mxCell>
        <mxCell id="hDPZ_8NJhUTKaHjRPU7a-8" style="edgeStyle=orthogonalEdgeStyle;rounded=0;orthogonalLoop=1;jettySize=auto;html=1;exitX=0;exitY=0.5;exitDx=0;exitDy=0;entryX=1;entryY=0.5;entryDx=0;entryDy=0;dashed=1;" edge="1" parent="1" source="hDPZ_8NJhUTKaHjRPU7a-7" target="hDPZ_8NJhUTKaHjRPU7a-2">
          <mxGeometry relative="1" as="geometry" />
        </mxCell>
        <mxCell id="hDPZ_8NJhUTKaHjRPU7a-9" style="edgeStyle=orthogonalEdgeStyle;rounded=0;orthogonalLoop=1;jettySize=auto;html=1;exitX=0.25;exitY=1;exitDx=0;exitDy=0;entryX=0.5;entryY=1;entryDx=0;entryDy=0;" edge="1" parent="1" source="hDPZ_8NJhUTKaHjRPU7a-7" target="hDPZ_8NJhUTKaHjRPU7a-3">
          <mxGeometry relative="1" as="geometry">
            <Array as="points">
              <mxPoint x="620" y="520" />
              <mxPoint x="55" y="520" />
            </Array>
          </mxGeometry>
        </mxCell>
      </root>
    </mxGraphModel>
  </diagram>
</mxfile>
